<?xml version="1.0" encoding="UTF-8"?>
<svg width="48" height="48" viewBox="0 0 48 48" fill="none" xmlns="http://www.w3.org/2000/svg">
  <!-- Main building shape -->
  <path d="M24 4L44 16L24 28L4 16L24 4Z" fill="white" fill-opacity="0.9"/>
  
  <!-- Pillars -->
  <rect x="12" y="16" width="4" height="24" fill="white" fill-opacity="0.8"/>
  <rect x="22" y="16" width="4" height="24" fill="white" fill-opacity="0.8"/>
  <rect x="32" y="16" width="4" height="24" fill="white" fill-opacity="0.8"/>
  
  <!-- Steps -->
  <rect x="8" y="40" width="32" height="2" fill="white" fill-opacity="0.7"/>
  <rect x="6" y="42" width="36" height="2" fill="white" fill-opacity="0.7"/>
  <rect x="4" y="44" width="40" height="4" fill="white" fill-opacity="0.7"/>
  
  <!-- Book overlay -->
  <path d="M24 12L32 16L24 20L16 16L24 12Z" fill="white"/>
  <path d="M20 17V22L24 24L28 22V17" stroke="white" stroke-width="2"/>
  
  <!-- Circle of knowledge -->
  <circle cx="24" cy="16" r="6" stroke="white" stroke-width="1.5" fill="none"/>
  <path d="M24 10L24 22M18 16L30 16" stroke="white" stroke-width="1.5"/>
</svg>